HIERARCHY
ROOT Hips
{
	OFFSET 0.000000 89.005402 0.000000
	CHANNELS 6 Xposition Yposition Zposition Xrotation Yrotation Zrotation
	JOINT Spine
	{
		OFFSET 0.116900 10.681000 0.373400
		CHANNELS 3 Xrotation Yrotation Zrotation
		JOINT Spine1
		{
			OFFSET 0.000000 13.840401 0.053500
			CHANNELS 3 Xrotation Yrotation Zrotation
			JOINT Spine2
			{
				OFFSET 0.000000 14.712700 -0.366200
				CHANNELS 3 Xrotation Yrotation Zrotation
				JOINT Neck
				{
					OFFSET 0.000000 35.415497 -3.314200
					CHANNELS 3 Xrotation Yrotation Zrotation
					JOINT Head
					{
						OFFSET 0.000000 16.899200 1.218300
						CHANNELS 3 Xrotation Yrotation Zrotation
						JOINT HeadTop_End
						{
							OFFSET 0.000000 22.206207 2.192500
							CHANNELS 3 Xrotation Yrotation Zrotation
							End Site
							{
								OFFSET 0.000000 22.314178 0.000000
							}
						}
					}
				}
				JOINT LeftShoulder
				{
					OFFSET 12.896400 26.716293 -4.548400
					CHANNELS 3 Xrotation Yrotation Zrotation
					JOINT LeftArm
					{
						OFFSET 19.027000 -4.857010 -1.718400
						CHANNELS 3 Xrotation Yrotation Zrotation
						JOINT LeftForeArm
						{
							OFFSET 24.179897 0.000000 0.000000
							CHANNELS 3 Xrotation Yrotation Zrotation
							JOINT LeftHand
							{
								OFFSET 27.156403 0.000000 0.000000
								CHANNELS 3 Xrotation Yrotation Zrotation
								JOINT LeftHandIndex1
								{
									OFFSET 16.441200 0.000000 0.000000
									CHANNELS 3 Xrotation Yrotation Zrotation
									JOINT LeftHandIndex2
									{
										OFFSET 4.821899 0.000000 0.000000
										CHANNELS 3 Xrotation Yrotation Zrotation
										JOINT LeftHandIndex3
										{
											OFFSET 6.386497 0.000000 0.000000
											CHANNELS 3 Xrotation Yrotation Zrotation
											JOINT LeftHandIndex4
											{
												OFFSET 5.188988 0.000000 0.000000
												CHANNELS 3 Xrotation Yrotation Zrotation
												End Site
												{
													OFFSET -0.178703 5.185913 0.000177
												}
											}
										}
									}
								}
								JOINT LeftHandThumb1
								{
									OFFSET 6.534897 -5.032593 5.900300
									CHANNELS 3 Xrotation Yrotation Zrotation
									JOINT LeftHandThumb2
									{
										OFFSET 3.818176 -2.204422 2.204423
										CHANNELS 3 Xrotation Yrotation Zrotation
										JOINT LeftHandThumb3
										{
											OFFSET 3.252098 -1.877594 1.877601
											CHANNELS 3 Xrotation Yrotation Zrotation
											JOINT LeftHandThumb4
											{
												OFFSET 5.251778 -3.032120 3.032117
												CHANNELS 3 Xrotation Yrotation Zrotation
												End Site
												{
													OFFSET 0.000023 6.780014 0.000000
												}
											}
										}
									}
								}
							}
						}
					}
				}
				JOINT RightShoulder
				{
					OFFSET -12.896300 26.716293 -4.548400
					CHANNELS 3 Xrotation Yrotation Zrotation
					JOINT RightArm
					{
						OFFSET -19.027000 -4.857010 -1.718400
						CHANNELS 3 Xrotation Yrotation Zrotation
						JOINT RightForeArm
						{
							OFFSET -24.179897 0.000000 0.000000
							CHANNELS 3 Xrotation Yrotation Zrotation
							JOINT RightHand
							{
								OFFSET -27.156403 0.000000 0.000000
								CHANNELS 3 Xrotation Yrotation Zrotation
								JOINT RightHandThumb1
								{
									OFFSET -6.591202 -4.852203 5.988100
									CHANNELS 3 Xrotation Yrotation Zrotation
									JOINT RightHandThumb2
									{
										OFFSET -3.818176 -2.204422 2.204423
										CHANNELS 3 Xrotation Yrotation Zrotation
										JOINT RightHandThumb3
										{
											OFFSET -3.252098 -1.877594 1.877601
											CHANNELS 3 Xrotation Yrotation Zrotation
											JOINT RightHandThumb4
											{
												OFFSET -5.251778 -3.032120 3.032117
												CHANNELS 3 Xrotation Yrotation Zrotation
												End Site
												{
													OFFSET -0.000023 6.780014 0.000000
												}
											}
										}
									}
								}
								JOINT RightHandIndex1
								{
									OFFSET -16.029404 0.000000 0.000000
									CHANNELS 3 Xrotation Yrotation Zrotation
									JOINT RightHandIndex2
									{
										OFFSET -5.213303 0.000000 0.000000
										CHANNELS 3 Xrotation Yrotation Zrotation
										JOINT RightHandIndex3
										{
											OFFSET -6.386528 0.000000 0.000000
											CHANNELS 3 Xrotation Yrotation Zrotation
											JOINT RightHandIndex4
											{
												OFFSET -5.189026 0.000000 0.000000
												CHANNELS 3 Xrotation Yrotation Zrotation
												End Site
												{
													OFFSET 0.236702 5.183624 0.001972
												}
											}
										}
									}
								}
							}
						}
					}
				}
			}
		}
	}
	JOINT LeftUpLeg
	{
		OFFSET 14.073000 -7.904099 -1.463000
		CHANNELS 3 Xrotation Yrotation Zrotation
		JOINT LeftLeg
		{
			OFFSET -0.109806 -34.073280 4.093200
			CHANNELS 3 Xrotation Yrotation Zrotation
			JOINT LeftFoot
			{
				OFFSET 0.109806 -29.899420 -6.319000
				CHANNELS 3 Xrotation Yrotation Zrotation
				JOINT LeftToeBase
				{
					OFFSET 1.551100 -14.988700 20.535801
					CHANNELS 3 Xrotation Yrotation Zrotation
					JOINT LeftToe_End
					{
						OFFSET 0.221200 0.570800 13.248301
						CHANNELS 3 Xrotation Yrotation Zrotation
						End Site
						{
							OFFSET 0.000000 13.262435 0.000000
						}
					}
				}
			}
		}
	}
	JOINT RightUpLeg
	{
		OFFSET -13.839300 -7.904099 -1.463000
		CHANNELS 3 Xrotation Yrotation Zrotation
		JOINT RightLeg
		{
			OFFSET 0.109694 -34.073219 4.093300
			CHANNELS 3 Xrotation Yrotation Zrotation
			JOINT RightFoot
			{
				OFFSET -0.109694 -29.899384 -6.319200
				CHANNELS 3 Xrotation Yrotation Zrotation
				JOINT RightToeBase
				{
					OFFSET -1.551100 -14.988700 20.535801
					CHANNELS 3 Xrotation Yrotation Zrotation
					JOINT RightToe_End
					{
						OFFSET -0.221200 0.570900 13.248299
						CHANNELS 3 Xrotation Yrotation Zrotation
						End Site
						{
							OFFSET 0.000000 13.262440 0.000000
						}
					}
				}
			}
		}
	}
}
MOTION
Frames: 4
Frame Time: 0.033333
-1.186307 73.794983 2.290948 16.356377 -39.513471 10.559177 31.188365 -5.861979 -14.354087 7.165813 -0.864771 -3.760935 7.168340 -0.878624 -3.752333 -9.410579 5.249061 2.500417 -45.851780 27.414540 5.397908 0.000001 0.000000 0.000000 6.257214 3.002031 -9.633529 -26.715870 16.514139 -26.664459 0.181490 -74.564246 0.238582 -10.862737 -0.055900 0.396786 6.882228 2.840018 -61.140425 8.247983 7.640089 -89.897878 2.146106 8.173523 -41.827689 -0.000002 -0.000001 0.000000 40.109866 -15.297161 -0.360443 5.639838 28.097935 11.338803 1.088556 40.896236 22.734044 -0.000003 -0.000000 -0.000001 0.978622 8.676406 1.489725 -6.181094 1.387705 68.398020 0.113318 65.307407 0.011602 -23.840618 13.927680 -4.326023 -2.346179 -6.100525 10.731450 2.363988 -23.806312 -8.771044 -5.012402 13.984905 5.861533 -0.000000 0.000001 0.000000 -0.058464 0.532016 0.738782 0.008804 -0.088231 5.078553 -0.009303 -1.998369 -2.833393 -0.000001 -0.000001 0.000000 -73.677599 2.860493 5.272440 78.462734 -7.444023 -2.234024 11.357362 -1.238483 -11.905225 -18.781226 -7.232060 16.560366 -0.000000 0.000001 -0.000000 -47.743138 -7.472539 -1.023358 62.673761 -4.002664 3.774256 -28.359818 2.919184 -6.407317 0.537506 -0.000019 0.000014 -0.000000 -0.000003 0.000000 
7.241643 74.767128 2.040512 16.704293 -39.357923 10.244425 30.062357 -6.759317 -12.980344 7.174907 -1.420378 -4.176328 7.167870 -1.496164 -4.134392 -9.355896 5.969884 2.669517 -45.151440 29.635798 5.990543 -0.000000 -0.000000 -0.000000 6.074967 3.142372 -9.642643 -28.230261 16.382888 -26.396120 0.202754 -73.402199 0.235577 -10.306546 -0.576779 -0.146827 6.882224 2.840020 -61.140418 8.247979 7.640089 -89.897878 2.146106 8.173524 -41.827693 -0.000000 -0.000003 -0.000001 40.109869 -15.297163 -0.360447 5.639839 28.097935 11.338806 1.088555 40.896239 22.734042 0.000001 0.000001 -0.000001 0.974110 8.840276 1.844626 -9.130138 1.856541 70.404442 1.588191 62.460393 -1.602831 -19.788323 17.174208 -3.352107 -2.019056 -5.721524 10.487446 2.470242 -23.289282 -8.665604 -4.373457 12.237851 4.819115 -0.000002 -0.000000 -0.000001 -0.038183 0.508488 1.560471 0.025143 -0.237542 6.110090 -0.018142 -2.274568 -0.997826 -0.000000 -0.000000 0.000000 -69.045057 -2.390324 11.510156 79.999199 -7.956339 -2.426418 14.920545 -0.939900 -10.667464 -35.127772 -5.681818 6.824718 0.000000 -0.000001 0.000000 -52.926125 -6.243648 -7.619070 57.965500 -2.826860 4.047899 -18.456928 4.252078 -2.113876 0.609880 -0.000053 -0.000005 -0.000000 0.000000 0.000000 
15.898589 76.547325 1.679894 19.174023 -41.169474 11.452552 26.902505 -5.821054 -12.841019 7.455455 -2.026673 -4.588505 7.465979 -2.094292 -4.514148 -9.028603 6.585015 2.872864 -44.768086 32.053371 6.770977 -0.000000 -0.000000 -0.000000 5.996949 3.425995 -9.728823 -29.610007 16.612991 -26.200688 0.214534 -72.569080 0.231504 -9.766440 -1.424353 -0.756261 6.882225 2.840021 -61.140418 8.247982 7.640088 -89.897878 2.146107 8.173523 -41.827693 0.000000 0.000000 -0.000001 40.109869 -15.297165 -0.360444 5.639837 28.097933 11.338811 1.088554 40.896243 22.734039 -0.000003 -0.000000 0.000000 0.955331 9.227172 2.730630 -11.410851 2.869595 70.911898 0.428367 58.920668 -0.463778 -13.006876 21.285943 -3.657254 -1.193206 -4.779584 9.864044 2.724508 -21.991440 -8.415681 -2.932882 7.813707 2.311234 -0.000001 0.000001 -0.000002 0.005276 0.462849 3.541111 0.075526 -0.620483 8.764119 -0.004835 -2.998046 3.809623 0.000002 -0.000003 -0.000001 -61.269447 -7.319491 15.574541 79.309636 -7.631837 -2.481614 12.892352 0.641056 -9.627348 -38.917106 1.983327 -2.099139 -0.000000 -0.000001 -0.000000 -55.463653 -3.910264 -10.903749 44.955363 -0.627416 4.368694 -4.115973 3.624254 1.216347 0.581663 -0.000065 0.000013 0.000000 -0.000002 0.000000 
24.311913 78.022591 1.333536 23.872684 -44.436043 14.629152 22.268638 -4.344862 -14.836380 7.783784 -1.962647 -4.550777 7.798060 -2.004122 -4.517657 -8.534476 6.904298 3.084906 -44.922192 34.129096 7.936694 0.000001 0.000000 0.000000 5.974985 3.789660 -9.781034 -29.310555 18.275575 -26.252126 0.162766 -75.037585 0.235520 -9.658730 -1.165279 -0.505419 6.882227 2.840023 -61.140425 8.247981 7.640088 -89.897884 2.146107 8.173524 -41.827693 -0.000000 -0.000003 -0.000002 40.109866 -15.297163 -0.360448 5.639836 28.097935 11.338809 1.088547 40.896236 22.734047 0.000002 -0.000000 -0.000002 0.916809 9.679472 3.880381 -11.124806 3.191825 70.173329 0.279920 58.159327 -0.320378 -5.857438 24.639332 -4.748737 -0.101624 -3.567512 9.024539 3.032076 -20.292779 -8.119203 -1.369088 1.956161 -0.783656 -0.000000 -0.000000 0.000002 0.040762 0.430957 5.953770 0.172536 -1.137497 12.380183 0.111314 -4.004649 10.543168 0.000000 -0.000001 -0.000000 -55.246641 -9.361590 17.725318 76.784727 -7.360413 -2.408305 13.580262 1.005427 -4.045828 -41.539595 10.865250 -10.449974 -0.000000 0.000002 -0.000000 -55.857164 -1.424606 -12.535029 26.375612 0.011876 4.693765 12.404778 3.596097 7.495710 0.437445 0.000022 0.000002 0.000000 -0.000004 -0.000000 
